<svg xmlns="http://www.w3.org/2000/svg" width="116.856" height="17.536" viewBox="0 0 116.856 17.536">
  <g id="Group_386" data-name="Group 386" transform="translate(-1379.382 -2705.964)">
    <path id="Path_13" data-name="Path 13" d="M222.268,919.607l2.627-4.773s.92-1.533,1.883,0a38.831,38.831,0,0,1,2.233,4.773l4.686.35s2.321.745.569,2.5-3.722,3.635-3.722,3.635l1.007,4.16s-.307,2.233-2.715.92a22.905,22.905,0,0,0-3.24-1.577l-3.9,2.058s-2.365.438-2.014-1.62a14.821,14.821,0,0,1,1.357-3.941l-4.116-4.073s-1.533-1.8.657-2.058S222.268,919.607,222.268,919.607Z" transform="translate(1162.977 1791.812)" fill="#fb9200"/>
    <path id="Path_14" data-name="Path 14" d="M222.268,919.607l2.627-4.773s.92-1.533,1.883,0a38.831,38.831,0,0,1,2.233,4.773l4.686.35s2.321.745.569,2.5-3.722,3.635-3.722,3.635l1.007,4.16s-.307,2.233-2.715.92a22.905,22.905,0,0,0-3.24-1.577l-3.9,2.058s-2.365.438-2.014-1.62a14.821,14.821,0,0,1,1.357-3.941l-4.116-4.073s-1.533-1.8.657-2.058S222.268,919.607,222.268,919.607Z" transform="translate(1187.563 1791.812)" fill="#fb9200"/>
    <path id="Path_15" data-name="Path 15" d="M222.268,919.607l2.627-4.773s.92-1.533,1.883,0a38.831,38.831,0,0,1,2.233,4.773l4.686.35s2.321.745.569,2.5-3.722,3.635-3.722,3.635l1.007,4.16s-.307,2.233-2.715.92a22.905,22.905,0,0,0-3.24-1.577l-3.9,2.058s-2.365.438-2.014-1.62a14.821,14.821,0,0,1,1.357-3.941l-4.116-4.073s-1.533-1.8.657-2.058S222.268,919.607,222.268,919.607Z" transform="translate(1212.148 1791.812)" fill="#fb9200"/>
    <path id="Path_16" data-name="Path 16" d="M222.268,919.607l2.627-4.773s.92-1.533,1.883,0a38.831,38.831,0,0,1,2.233,4.773l4.686.35s2.321.745.569,2.5-3.722,3.635-3.722,3.635l1.007,4.16s-.307,2.233-2.715.92a22.905,22.905,0,0,0-3.24-1.577l-3.9,2.058s-2.365.438-2.014-1.62a14.821,14.821,0,0,1,1.357-3.941l-4.116-4.073s-1.533-1.8.657-2.058S222.268,919.607,222.268,919.607Z" transform="translate(1236.731 1791.812)" fill="#fb9200"/>
    <path id="Path_17" data-name="Path 17" d="M222.268,919.607l2.627-4.773s.92-1.533,1.883,0a38.831,38.831,0,0,1,2.233,4.773l4.686.35s2.321.745.569,2.5-3.722,3.635-3.722,3.635l1.007,4.16s-.307,2.233-2.715.92a22.905,22.905,0,0,0-3.24-1.577l-3.9,2.058s-2.365.438-2.014-1.62a14.821,14.821,0,0,1,1.357-3.941l-4.116-4.073s-1.533-1.8.657-2.058S222.268,919.607,222.268,919.607Z" transform="translate(1261.317 1791.812)" fill="#ffedd5"/>
  </g>
</svg>
